<?xml version="1.0" encoding="utf-8"?>
<svg version="1.1" xmlns="http://www.w3.org/2000/svg" xmlns:xlink="http://www.w3.org/1999/xlink" width="512" height="512" viewBox="0 0 512 512" overflow="hidden" xml:space="preserve">
  <g id="logo">
    <path id="bg" d="M 256 512 Q 52 375, 9 83 Q 128 0, 256 0 Q 384 0, 503 83 Q 460 375, 256 512" fill="white" />
    <path id="frame_bottom" d="M 256 506 Q 85 380, 40 190 Q 90 340, 256 468 Q 422 340, 472 190 Q 427 380, 256 506" fill="#1b5e20" />
    <path id="frame_top" d="M 256 463 Q 55 310, 15 85 Q 128 8, 256 4 Q 384 8, 497 85 Q 457 310, 256 463 M 256 38 Q 172 35, 85 105 Q 100 300, 256 463 Q 412 300, 427 105 Q 340 35, 256 38" fill="#1b5e20" />
    <path id="frame_center" d="M 256 463 Q 102 290, 90 107 Q 172 40, 256 42 Q 340 40, 422 107 Q 410 290, 256 463" fill="#66bb6a" />
    <g id="ball" fill="white">
      <path d="M 202 223Q 232 215, 239 238Q 244 256, 214 291Q 182 327, 184 338Q 182 351, 191 367Q 176 354, 178 336Q 179 309, 214 274Q 223 266, 225 250Q 173 256, 156 311Q 161 253, 225 241Q 225 227, 202 223" />
      <path d=" M 310 223Q 280 215, 273 238Q 268 256, 298 291Q 330 327, 328 338Q 330 351, 321 367Q 336 354, 334 336Q 333 309, 298 274Q 289 266, 287 250Q 339 256, 356 311Q 351 253, 287 241Q 287 227, 310 223" />
    </g>
    <g id="cross" fill="white">
      <path d="M 243 338L 243 200L 191 200Q 170 201, 165 205Q 171 188, 165 171Q 170 175, 191 176L 243 176L 243 111Q 223 108, 208 114Q 211 100, 208 86Q 229 90, 243 89L 243 89L 243 68Q 244 59, 238 53Q 256 59, 274 53Q 268 59, 269 68L 269 89Q 283 90, 304 86Q 301 100, 304 114Q 283 108, 269 111L 269 176L 321 176Q 342 175, 347 171Q 341 188, 347 205Q 342 201, 321 200L 269 200L 269 338Z" />
      <path d="M 151 90l 5 19l 18 -6l -14 13l 14 14l -19 -6l -5 17l -5 -17l -18 5l 14 -13l -14 -13l 18 5Z" />
      <path d="M 361 90l 5 19l 18 -6l -14 13l 14 14l -19 -6l -5 17l -5 -17l -18 5l 14 -13l -14 -13l 18 5Z" />
      <path d="M 243 336Q 238 345, 227 349Q 208 361, 225 381Q 230 384, 232 394Q 238 381, 230 370Q 227 359, 235 358Q 243 357, 243 364Q 237 395, 247 401Q 253 403, 254 409Q 257 401, 251 394Q 249 392, 251 388Q 254 378, 252 373Q 254 363, 263 365Q 270 369, 264 384Q 261 394, 264 403Q 265 408, 261 416Q 277 400, 276 367Q 279 353, 288 363Q 290 370, 285 378Q 282 391, 285 395Q 286 388, 296 377Q 305 364, 295 356Q 269 343, 269 336Z" />
    </g>
    <g id="shadow" fill="black" opacity="0">
      <path d="M 256 512 Q 460 375, 503 83 Q 384 0, 256 0" />
    </g>
  </g>
</svg>
